<?xml version="1.0" encoding="UTF-8"?>
<svg id="Layer_1" xmlns="http://www.w3.org/2000/svg" xmlns:xlink="http://www.w3.org/1999/xlink" version="1.1" viewBox="0 0 375.06 140.41">
  <!-- Generator: Adobe Illustrator 30.0.0, SVG Export Plug-In . SVG Version: 2.1.1 Build 123)  -->
  <defs>
    <style>
      .st0, .st1, .st2 {
        fill: none;
      }

      .st3 {
        fill: #acc5e3;
        fill-opacity: .25;
      }

      .st4 {
        fill: #eab700;
      }

      .st5 {
        fill: #97e4ff;
      }

      .st6 {
        fill: #a7a5a6;
      }

      .st7 {
        fill: #b48ec6;
      }

      .st1 {
        stroke: #588bc8;
        stroke-width: 3.25px;
      }

      .st1, .st2 {
        stroke-linecap: square;
        stroke-linejoin: round;
      }

      .st8 {
        fill: #588bc8;
        stroke: #fff;
        stroke-miterlimit: 10;
        stroke-width: 3.53px;
      }

      .st9 {
        fill: #4f7cbb;
      }

      .st10 {
        fill: #00b97c;
      }

      .st2 {
        stroke: #2f6eba;
        stroke-width: 4px;
      }

      .st11 {
        clip-path: url(#clippath);
      }
    </style>
    <clipPath id="clippath">
      <rect class="st0" x="156.16" y="23.3" width="218.9" height="108.74"/>
    </clipPath>
  </defs>
  <g>
    <g class="st11">
      <path id="mf5d1fb4e27" class="st3" d="M166.11,127.1v-.03h.4s.4,0,.4,0h.4s.4,0,.4,0h.4s.4,0,.4,0h.4s.4,0,.4,0h.4s.4,0,.4,0h.4s.4,0,.4,0h.4s.4,0,.4,0h.4s.4-.01.4-.01h.4s.4-.01.4-.01h.4s.4-.01.4-.01h.4s.4-.01.4-.01h.4s.4-.02.4-.02h.4s.4-.02.4-.02h.4s.4-.02.4-.02h.4s.4-.02.4-.02h.4s.4-.02.4-.02h.4s.4-.03.4-.03h.4s.4-.03.4-.03l.4-.02.4-.02.4-.02.4-.02.4-.02.4-.02.4-.02.4-.02.4-.02.4-.02.4-.03.4-.03.4-.03.4-.03.4-.03.4-.03.4-.03.4-.04.4-.04.4-.04.4-.04.4-.04.4-.04.4-.05.4-.05.4-.05.4-.05.4-.06.4-.06.4-.06.4-.06.4-.07.4-.07.4-.07.4-.07.4-.08.4-.08.4-.08.4-.09.4-.09.4-.09.4-.1.4-.1.4-.11.4-.11.4-.11.4-.12.4-.12.4-.13.4-.13.4-.14.4-.14.4-.15.4-.15.4-.16.4-.16.4-.17.4-.17.4-.18.4-.19.4-.19.4-.2.4-.2.4-.21.4-.22.4-.23.4-.23.4-.24.4-.25.4-.25.4-.26.4-.27.4-.28.4-.29.4-.29.4-.3.4-.31.4-.32.4-.33.4-.34.4-.35.4-.36.4-.37.4-.38.4-.39.4-.4.4-.41.4-.42.4-.43.4-.44.4-.45.4-.46.4-.47.4-.48.4-.49.4-.5.4-.51.4-.52.4-.53.4-.55.4-.56.4-.57.4-.58.4-.59.4-.6.4-.61.4-.62.4-.64.4-.65.4-.66.4-.67.4-.68.4-.69.4-.7.4-.71.4-.72.4-.74.4-.75.4-.76.4-.77.4-.78.4-.79.4-.8.4-.81.4-.82.4-.83.4-.84.4-.84.4-.85.4-.86.4-.87.4-.88.4-.89.4-.89.4-.9.4-.91.4-.91.4-.92.4-.92.4-.93.4-.94.4-.94.4-.94.4-.95.4-.95.4-.95.4-.96.4-.96.4-.96.4-.96.4-.96.4-.96.4-.96.4-.96.4-.96.4-.96.4-.95.4-.95.4-.95.4-.94.4-.94.4-.93.4-.93.4-.92.4-.91.4-.91.4-.9.4-.89.4-.88.4-.87.4-.86.4-.85.4-.84.4-.83.4-.82.4-.8.4-.79.4-.77.4-.76.4-.74.4-.73.4-.71.4-.7.4-.68.4-.66.4-.64.4-.62.4-.61.4-.59.4-.57.4-.55.4-.53.4-.5.4-.48.4-.46.4-.44.4-.42.4-.39.4-.37.4-.35.4-.32.4-.3.4-.28.4-.25.4-.23.4-.2.4-.18.4-.15.4-.13.4-.1.4-.08.4-.05.4-.03h.4l.4.03.4.05.4.08.4.1.4.13.4.15.4.18.4.2.4.23.4.25.4.28.4.3.4.32.4.35.4.37.4.39.4.42.4.44.4.46.4.48.4.5.4.53.4.55.4.57.4.59.4.61.4.62.4.64.4.66.4.68.4.7.4.71.4.73.4.74.4.76.4.77.4.79.4.8.4.82.4.83.4.84.4.85.4.86.4.87.4.88.4.89.4.9.4.91.4.91.4.92.4.93.4.93.4.94.4.94.4.95.4.95.4.95.4.96.4.96.4.96.4.96.4.96.4.96.4.96.4.96.4.96.4.96.4.95.4.95.4.95.4.94.4.94.4.94.4.93.4.92.4.92.4.91.4.91.4.9.4.89.4.89.4.88.4.87.4.86.4.85.4.84.4.84.4.83.4.82.4.81.4.8.4.79.4.78.4.77.4.76.4.75.4.74.4.72.4.71.4.7.4.69.4.68.4.67.4.66.4.65.4.64.4.62.4.61.4.6.4.59.4.58.4.57.4.56.4.55.4.53.4.52.4.51.4.5.4.49.4.48.4.47.4.46.4.45.4.44.4.43.4.42.4.41.4.4.4.39.4.38.4.37.4.36.4.35.4.34.4.33.4.32.4.31.4.3.4.29.4.29.4.28.4.27.4.26.4.25.4.25.4.24.4.23.4.23.4.22.4.21.4.2.4.2.4.19.4.19.4.18.4.17.4.17.4.16.4.16.4.15.4.15.4.14.4.14.4.13.4.13.4.12.4.12.4.11.4.11.4.11.4.1.4.1.4.09.4.09.4.09.4.08.4.08.4.08.4.07.4.07.4.07.4.07.4.06.4.06.4.06.4.06.4.05.4.05.4.05.4.05.4.04.4.04.4.04.4.04.4.04.4.04.4.03.4.03.4.03.4.03.4.03.4.03.4.03.4.02.4.02.4.02.4.02.4.02.4.02.4.02.4.02.4.02.4.02.4.02h.4s.4.03.4.03h.4s.4.03.4.03h.4s.4.02.4.02h.4s.4.02.4.02h.4s.4.02.4.02h.4s.4.02.4.02h.4s.4.01.4.01h.4s.4.01.4.01h.4s.4.01.4.01h.4s.4.01.4.01h.4s.4,0,.4,0h.4s.4,0,.4,0h.4s.4,0,.4,0h.4s.4,0,.4,0h.4s.4,0,.4,0h.4s.4,0,.4,0h.4s.4,0,.4,0h.4v.04h-199Z"/>
    </g>
    <path class="st2" d="M166.11,127.07l10.37-.13,5.98-.21,4.39-.29,3.59-.37,3.19-.47,2.79-.56,2.39-.62,2.39-.78,1.99-.78,1.99-.93,1.99-1.09,1.99-1.27,1.99-1.48,1.99-1.69,1.99-1.93,1.99-2.18,1.99-2.45,1.99-2.73,1.99-3.01,1.99-3.29,1.99-3.57,1.99-3.84,2.39-4.93,2.79-6.14,3.19-7.41,10.37-24.45,2.39-5.07,1.99-3.87,1.6-2.82,1.6-2.53,1.6-2.22,1.2-1.45,1.2-1.25,1.2-1.04,1.2-.83,1.2-.6,1.2-.38.8-.13.8-.03.8.08.8.18,1.2.46,1.2.68,1.2.9,1.2,1.11,1.2,1.32,1.2,1.51,1.6,2.3,1.6,2.61,1.6,2.88,1.99,3.94,1.99,4.25,2.79,6.34,3.99,9.5,5.58,13.28,2.79,6.3,2.39,5.09,2.39,4.75,1.99,3.68,1.99,3.4,1.99,3.12,1.99,2.84,1.99,2.56,1.99,2.29,1.99,2.03,1.99,1.79,1.99,1.56,1.99,1.35,1.99,1.16,1.99.99,1.99.84,2.39.83,2.39.67,2.79.61,2.79.46,3.19.38,3.99.32,4.79.23,6.38.15,7.18.07h0"/>
  </g>
  <circle class="st8" cx="241.27" cy="67.78" r="16.72"/>
  <path class="st1" d="M136.14,70.21l5.18-.02,2.99-.03,2.19-.04,1.79-.06,1.59-.07,1.4-.08,1.2-.09,1.2-.12,1-.12,1-.14,1-.16,1-.19,1-.22,1-.25,1-.29,1-.33,1-.37,1-.41,1-.45,1-.49,1-.54,1-.58,1.2-.74,1.4-.92,1.59-1.11,5.18-3.67,1.2-.76,1-.58.8-.42.8-.38.8-.33.6-.22.6-.19.6-.16.6-.12.6-.09.6-.06.4-.02h.4s.4,0,.4,0l.4.03.6.07.6.1.6.13.6.17.6.2.6.23.8.35.8.39.8.43,1,.59,1,.64,1.4.95,1.99,1.43,2.79,1.99,1.4.94,1.2.76,1.2.71,1,.55,1,.51,1,.47,1,.43,1,.38,1,.34,1,.3,1,.27,1,.23,1,.2,1,.17,1,.15,1,.13,1.2.13,1.2.1,1.4.09,1.4.07,1.59.06,1.99.05,2.39.03,3.19.02h3.59"/>
  <g>
    <circle class="st6" cx="34.38" cy="60.36" r="5.43"/>
    <circle class="st7" cx="124.01" cy="80.62" r="5.43"/>
    <circle class="st4" cx="39.8" cy="92.13" r="9.48"/>
    <circle class="st6" cx="60.2" cy="114.02" r="9.48"/>
    <circle class="st6" cx="104.3" cy="69.84" r="9.48"/>
    <circle class="st9" cx="90.08" cy="44.54" r="9.48"/>
    <circle class="st7" cx="39.8" cy="30.32" r="9.48"/>
    <circle class="st6" cx="64.94" cy="60.36" r="9.48"/>
    <circle class="st10" cx="94.82" cy="112.98" r="4.74"/>
    <circle class="st5" cx="80.63" cy="98.33" r="6.2"/>
    <circle class="st6" cx="39.8" cy="111.38" r="6.2"/>
    <circle class="st6" cx="69.68" cy="30.32" r="4.74"/>
    <circle class="st10" cx="78.57" cy="16.32" r="4.74"/>
    <circle class="st5" cx="47.41" cy="70.21" r="4.74"/>
    <circle class="st6" cx="16.33" cy="79.32" r="4.74"/>
    <circle class="st6" cx="47.41" cy="52.9" r="2.03"/>
    <circle class="st6" cx="93.6" cy="18.35" r="2.03"/>
    <circle class="st6" cx="55.46" cy="39.8" r="2.03"/>
    <circle class="st6" cx="84.66" cy="30.32" r="2.03"/>
    <circle class="st6" cx="57.04" cy="16.32" r="2.03"/>
    <circle class="st6" cx="124.01" cy="60.36" r="2.03"/>
    <circle class="st6" cx="91.57" cy="60.36" r="2.03"/>
    <circle class="st6" cx="57.04" cy="82.65" r="2.03"/>
    <circle class="st9" cx="16.33" cy="58.33" r="2.03"/>
    <circle class="st6" cx="80.6" cy="72.77" r="2.03"/>
    <circle class="st4" cx="111.76" cy="37.78" r="2.03"/>
    <circle class="st6" cx="64.94" cy="130.21" r="2.03"/>
    <circle class="st6" cx="121.99" cy="95.46" r="2.03"/>
    <circle class="st6" cx="108.19" cy="91.64" r="2.03"/>
    <circle class="st6" cx="30.32" cy="117.72" r="2.03"/>
    <circle class="st6" cx="23.1" cy="97.49" r="2.03"/>
    <circle class="st6" cx="82.63" cy="122.65" r="2.03"/>
    <circle class="st6" cx="99.56" cy="97.49" r="2.03"/>
    <circle class="st6" cx="111.76" cy="54.02" r="2.03"/>
    <circle class="st6" cx="66.07" cy="97.49" r="2.03"/>
    <circle class="st6" cx="71.73" cy="86.05" r="2.03"/>
    <circle class="st6" cx="91.57" cy="86.05" r="2.03"/>
    <circle class="st0" cx="70.21" cy="70.21" r="70.21"/>
  </g>
</svg>